<?xml version="1.0" encoding="UTF-8"?>
<svg t="1628757014622" class="icon" viewBox="0 0 1024 1024" version="1.1" xmlns="http://www.w3.org/2000/svg" p-id="2500" width="200" height="200"><path d="M836.66784 250.752l86.8288 531.8272-2.3616-14.72a48.1856 48.1856 0 0 1 2.3744 14.688c0 30.624-31.0912 58.9376-81.8944 81.9392-76.9984 34.848-199.424 57.5488-327.8528 57.5488-129.5424 0-244.1408-23.0848-314.1568-58.4704-45.1392-22.848-71.6928-50.7776-71.6928-81.0176a51.8784 51.8784 0 0 1 3.6352-19.072l-3.6544 19.104 100.416-531.8336" fill="#F8D74E" p-id="2501"></path><path d="M513.76224 931.6288c-125.7088 0-244.7744-22.24-318.4896-59.5008-49.9328-25.2736-76.512-55.9488-76.9536-88.7552a9.4912 9.4912 0 0 1 0-1.5552 61.536 61.536 0 0 1 3.8592-20.704L218.87584 248.96a9.6 9.6 0 0 1 18.8672 3.5648l-96.6336 511.744a9.1712 9.1712 0 0 1-0.1344 0.9984l-3.456 18.048c0.576 31.712 36.3584 56.4544 66.4128 71.68 71.1552 35.9616 186.9824 57.4272 309.824 57.4272 124.3776 0 245.4656-21.1968 323.8976-56.6848 48.6144-22.016 75.6416-47.68 76.2432-72.352L827.19584 252.288a9.6 9.6 0 1 1 18.944-3.0912l84.2624 516.1344a57.2416 57.2416 0 0 1 2.7008 17.216c0 33.3888-30.272 64.7488-87.5328 90.6752-80.7936 36.5696-204.8384 58.4-331.8144 58.4z" p-id="2502"></path><path d="M227.93824 248.2688l-23.296 134.688s39.3152-15.744 60.0704-8.8768 55.0144 10.4448 68.8128 32.128 42.6688 63.6608 60.4352 62.9376 41.4592-2.2848 59.6864-24.5952 52.9088-40.7616 74.5088-35.6928 54.4 18.9952 67.872 41.4464 41.8688 37.28 76.4544 36.48 69.6832-26.5408 77.44-47.5456 52.4864-39.3664 76.5696-30.2208a169.28 169.28 0 0 1 33.856 16.032l-31.6736-196.8256s-65.536-46.8992-255.2192-54.5152-325.4912 40.0832-342.6048 58.5216-2.912 16.0384-2.912 16.0384z" fill="#CD603A" p-id="2503"></path><path d="M675.62464 496.4096c-33.5168 0-66.1632-14.8736-82.2976-37.824-17.1968-24.448-37.504-37.632-60.3584-39.2-25.0304-1.664-51.8592 10.816-73.728 34.3296-15.7952 16.992-32.8384 25.056-50.5728 23.9232-24.7424-1.5488-50.1056-20.8192-77.5296-58.8992-38.0928-52.9024-97.9648-35.584-124.3072-19.0464a9.6 9.6 0 0 1-10.208-16.256c36.736-23.0848 107.0336-35.7056 150.0928 24.0768 23.5264 32.6656 44.768 49.8112 63.1488 50.9632 11.9296 0.6784 23.4688-5.0944 35.3152-17.8368 25.8304-27.776 58.3296-42.5472 89.088-40.4032 28.5184 1.9456 54.368 18.304 74.7648 47.3152 13.2608 18.8544 41.5424 30.7328 70.336 29.5872 14.8992-0.6016 42.1376-5.4144 57.152-30.912a105.536 105.536 0 0 1 72.3456-49.8816 63.6416 63.6416 0 0 1 54.6688 17.8688 9.6 9.6 0 0 1-13.4208 13.7344 44.4544 44.4544 0 0 0-38.72-12.576 86.6176 86.6176 0 0 0-58.3296 40.608c-14.3488 24.352-40.928 39.0592-72.928 40.3456-1.4976 0.0576-3.008 0.0832-4.512 0.0832z" p-id="2504"></path><path d="M350.61984 275.3024a9.5808 9.5808 0 0 1-2.432-0.32c-16.256-4.2304-34.9184-10.8864-34.9184-24.896 0-7.9872 0-24.6208 95.392-34.976a9.6 9.6 0 1 1 2.08 19.0848c-46.144 5.0112-67.9424 11.648-75.7312 15.8464a83.072 83.072 0 0 0 18.0288 6.368 9.6 9.6 0 0 1-2.4192 18.8864zM199.61184 742.9056a9.4912 9.4912 0 0 1-1.4976-0.1216 9.6 9.6 0 0 1-7.9936-10.9696l38.816-246.496a9.6 9.6 0 0 1 18.9696 2.9888l-38.816 246.4896a9.6 9.6 0 0 1-9.472 8.1088z" fill="#FFFFFF" p-id="2505"></path><path d="M532.49504 334.9888c-155.9296 0-313.7792-28.9408-313.7792-84.2368s157.8496-84.2432 313.7792-84.2432 313.7792 28.9344 313.7792 84.2432-157.856 84.2368-313.7792 84.2368z m0-149.28c-182.5152 0-294.5792 37.8752-294.5792 65.0432s112.064 65.0368 294.5792 65.0368 294.5792-37.888 294.5792-65.0368S715.00384 185.7088 532.49504 185.7088z" p-id="2506"></path><path d="M193.51264 383.2448l25.344-134.272 18.8672 3.5648-25.344 134.272zM827.84224 256.2432l18.944-3.0912 27.3664 167.616-18.944 3.0912z" p-id="2507"></path></svg>
